<svg width="16" height="12" viewBox="0 0 16 12" fill="none" xmlns="http://www.w3.org/2000/svg">
<path fill-rule="evenodd" clip-rule="evenodd" d="M7.56696 11.6161C7.22671 12.0063 6.63451 12.0469 6.24423 11.7066L0.508936 6.70665C0.304714 6.52861 0.1875 6.27092 0.1875 5.99999C0.1875 5.72905 0.304714 5.47137 0.508936 5.29333L6.24423 0.293326C6.63451 -0.0469162 7.22671 -0.00635549 7.56696 0.383923C7.9072 0.774201 7.86664 1.36641 7.47636 1.70665L3.62702 5.06249L14.875 5.06249C15.3928 5.06249 15.8125 5.48222 15.8125 5.99999C15.8125 6.51775 15.3928 6.93749 14.875 6.93749L3.62702 6.93749L7.47636 10.2933C7.86664 10.6336 7.9072 11.2258 7.56696 11.6161Z" fill="#363853"/>
</svg>
