<svg width="18" height="14" viewBox="0 0 18 14" fill="none" xmlns="http://www.w3.org/2000/svg">
<path d="M3.96013 0.331482C2.26513 0.331482 0.938472 0.75981 0.704305 2.38898C0.629305 2.91064 0.794295 3.42398 1.17346 3.79482C1.3618 3.97898 1.56097 4.19815 1.8243 4.41982C2.48514 4.97732 3.32764 5.60398 4.11597 6.16481C6.28514 7.70647 7.99764 8.66481 9.01181 8.66481C10.026 8.66481 11.7385 7.70647 13.9077 6.16481C14.6968 5.60398 15.5393 4.97648 16.1993 4.41982C16.4627 4.19815 16.6618 3.97982 16.8502 3.79482C17.2293 3.42398 17.3943 2.91064 17.3193 2.38898C17.0852 0.75981 15.7585 0.331482 14.0635 0.331482H3.96013ZM0.678467 5.46148V10.3315C0.678467 12.1723 2.17097 13.6648 4.01181 13.6648H14.0118C15.8527 13.6648 17.3452 12.1723 17.3452 10.3315V5.46148C16.6618 6.11065 15.8985 6.78065 14.8193 7.54481C12.456 9.21815 10.3335 10.3315 9.01181 10.3315C7.69014 10.3315 5.56765 9.21815 3.20431 7.54481C2.12431 6.78065 1.3618 6.11065 0.678467 5.46148Z" fill="#363853"/>
</svg>
