<svg width="28" height="28" viewBox="0 0 28 28" fill="none" xmlns="http://www.w3.org/2000/svg">
<path d="M24.7955 3.20553C21.637 0.0469915 16.2336 0.312976 12.748 3.79764C11.518 5.02759 10.6984 6.49727 10.279 8.02168C10.2434 8.09379 9.24604 14.5665 9.24604 14.5665C9.02564 16.0209 8.44775 17.3899 7.57632 18.5599C7.2574 18.3101 6.79732 18.3294 6.5038 18.6229L1.23767 23.8901C0.920777 24.207 0.920777 24.7219 1.23767 25.0388L2.96121 26.7623C3.27811 27.0792 3.79302 27.0792 4.10991 26.7623L9.37708 21.4952C9.6706 21.2016 9.68888 20.7416 9.44005 20.4226C10.6101 19.5522 11.9791 18.9733 13.4335 18.7529C13.4335 18.7529 19.9063 17.7556 19.9783 17.72C21.5028 17.3005 22.9725 16.4809 24.2023 15.252C27.6869 11.7674 27.9531 6.36292 24.7944 3.20438L24.7955 3.20553ZM25.3684 8.94904L24.2207 7.80135L25.1246 6.89742C25.3125 7.55554 25.3948 8.24619 25.3684 8.948V8.94904ZM20.7736 7.80236L21.9223 6.65366L23.071 7.80236L21.9223 8.95107L20.7736 7.80236ZM21.3484 9.52591L20.1997 10.6746L19.051 9.52591L20.1997 8.37721L21.3484 9.52591ZM20.1987 7.22752L19.05 6.07882L20.1987 4.93012L21.3474 6.07882L20.1987 7.22752ZM19.6249 7.80236L18.4762 8.95107L17.3275 7.80236L18.4762 6.65366L19.6249 7.80236ZM17.9003 9.52591L16.7516 10.6746L15.6029 9.52591L16.7516 8.37721L17.9003 9.52591ZM16.7516 7.22752L15.6029 6.07882L16.7516 4.93012L17.9003 6.07882L16.7516 7.22752ZM16.1778 7.80236L15.0291 8.95107L13.8804 7.80236L15.0291 6.65366L16.1778 7.80236ZM14.4532 9.52591L13.3045 10.6746L12.1558 9.52591L13.3045 8.37721L14.4532 9.52591ZM14.4532 12.9731L13.0334 14.3929C12.6627 13.9664 12.361 13.4971 12.1325 12.9954L13.3046 11.8233L14.4533 12.972L14.4532 12.9731ZM13.8794 11.2495L15.0281 10.1008L16.1768 11.2495L15.0281 12.3982L13.8794 11.2495ZM16.7517 11.8233L17.9004 12.972L16.7517 14.1207L15.603 12.972L16.7517 11.8233ZM17.3265 11.2495L18.4752 10.1008L19.6239 11.2495L18.4752 12.3982L17.3265 11.2495ZM20.1988 11.8233L21.3475 12.972L20.1988 14.1207L19.0501 12.972L20.1988 11.8233ZM20.7736 11.2495L21.9223 10.1008L23.071 11.2495L21.9223 12.3982L20.7736 11.2495ZM22.4972 9.52596L23.6459 8.37726L24.7946 9.52596L23.6459 10.6747L22.4972 9.52596ZM24.8179 6.05542L23.6459 7.22747L22.4972 6.07877L23.917 4.65891C24.2877 5.08547 24.5894 5.5547 24.8179 6.05643L24.8179 6.05542ZM23.3422 4.08406L21.9223 5.50392L20.7736 4.35522L21.9457 3.18317C22.4474 3.41169 22.9156 3.71335 23.3432 4.08403L23.3422 4.08406ZM21.1027 2.87647L20.1987 3.7804L19.0511 2.63271C19.7529 2.60631 20.4446 2.68756 21.1027 2.87647ZM19.6249 4.35525L18.4762 5.50395L17.3275 4.35525L18.4762 3.20654L19.6249 4.35525ZM17.7216 2.81045L16.7517 3.7804L16.2682 3.29695C16.7425 3.08163 17.23 2.92319 17.7216 2.81045ZM15.5166 3.69405L16.1768 4.35423L15.0281 5.50293L14.1973 4.67214C14.6138 4.29534 15.0545 3.96729 15.5166 3.69307V3.69405ZM13.6225 5.248L14.4533 6.07879L13.3046 7.22749L12.6444 6.56732C12.9176 6.10521 13.2456 5.66338 13.6234 5.248H13.6225ZM11.7923 8.61584C11.903 8.17708 12.0543 7.74238 12.2473 7.31886L12.7307 7.80231L11.7709 8.76209L11.7933 8.61584H11.7923ZM12.7297 11.2494L11.8258 12.1534C11.6379 11.4952 11.5556 10.8046 11.582 10.1018L12.7297 11.2494ZM10.4364 17.5647L10.9422 14.2241C11.2682 14.8071 11.6653 15.3556 12.1549 15.8451C12.6444 16.3347 13.1929 16.7328 13.7758 17.0578L10.4353 17.5636L10.4364 17.5647ZM13.6082 14.9677L15.028 13.5478L16.1767 14.6965L15.0047 15.8686C14.503 15.6401 14.0347 15.3384 13.6072 14.9677L13.6082 14.9677ZM15.8477 16.1743L16.7516 15.2703L17.8993 16.418C17.1975 16.4444 16.5068 16.3632 15.8487 16.1743H15.8477ZM17.3265 14.6965L18.4752 13.5478L19.6239 14.6965L18.4752 15.8452L17.3265 14.6965ZM19.3852 16.2088L19.2389 16.2311L20.1987 15.2714L20.6821 15.7548C20.2586 15.9478 19.8239 16.0991 19.3852 16.2098V16.2088ZM21.4337 15.3567L20.7735 14.6965L21.9222 13.5478L22.753 14.3786C22.3366 14.7554 21.8958 15.0834 21.4337 15.3577V15.3567ZM23.3279 13.8037L22.4971 12.9729L23.6458 11.8242L24.306 12.4844C24.0328 12.9465 23.7047 13.3884 23.3269 13.8037H23.3279ZM24.7041 11.7329L24.2207 11.2494L25.1906 10.2795C25.0779 10.771 24.9194 11.2586 24.7041 11.7329Z" fill="#624AE0"/>
</svg>
