<svg width="28" height="28" viewBox="0 0 28 28" fill="none" xmlns="http://www.w3.org/2000/svg">
<path d="M4.22222 3C3.54756 3 3 3.54756 3 4.22222C3 4.89689 3.54756 5.44444 4.22222 5.44444H23.7778C24.4524 5.44444 25 4.89689 25 4.22222C25 3.54756 24.4524 3 23.7778 3H4.22222ZM6.66667 7.88889C4.64144 7.88889 3 9.53033 3 11.5556V16.4444C3 18.4697 4.64144 20.1111 6.66667 20.1111H21.3333C23.3586 20.1111 25 18.4697 25 16.4444V11.5556C25 9.53033 23.3586 7.88889 21.3333 7.88889H6.66667ZM4.22222 22.5556C3.54756 22.5556 3 23.1031 3 23.7778C3 24.4524 3.54756 25 4.22222 25H23.7778C24.4524 25 25 24.4524 25 23.7778C25 23.1031 24.4524 22.5556 23.7778 22.5556H4.22222Z" fill="#A4A9BD"/>
</svg>
