<svg width="16" height="16" viewBox="0 0 16 16" fill="none" xmlns="http://www.w3.org/2000/svg">
<path d="M3.92047 0.5C3.63977 0.5 3.36097 0.542797 3.09224 0.626708L2.88682 0.69085C1.69022 1.06449 0.823646 2.13324 0.598372 3.41166C0.46721 4.15601 0.467209 4.92092 0.598371 5.66526C0.603529 5.69453 0.609024 5.72369 0.614851 5.75274C1.55337 10.6309 5.36904 14.4466 10.2472 15.3851C10.2763 15.391 10.3054 15.3965 10.3347 15.4016C11.0791 15.5328 11.844 15.5328 12.5883 15.4016C13.8668 15.1764 14.9355 14.3098 15.3092 13.1132L15.3733 12.9078C15.4572 12.639 15.5 12.3602 15.5 12.0795C15.5 10.7303 14.312 9.73076 12.9684 9.73077H9.95467C8.61112 9.73076 7.42308 10.7303 7.42308 12.0795C7.42308 12.3602 7.46587 12.639 7.54979 12.9078L7.61393 13.1132C7.63583 13.1833 7.66012 13.2523 7.6867 13.3201C5.51326 12.2499 3.75009 10.4867 2.67986 8.3133C2.74767 8.33988 2.81668 8.36417 2.88682 8.38607L3.09224 8.45021C3.36097 8.53413 3.63977 8.57692 3.92047 8.57692C5.26965 8.57692 6.26924 7.38888 6.26923 6.04534L6.26923 3.03159C6.26924 1.68804 5.26966 0.5 3.92047 0.5Z" fill="#363853"/>
</svg>
