<svg width="28" height="28" viewBox="0 0 28 28" fill="none" xmlns="http://www.w3.org/2000/svg">
<path d="M18.2 3C15.2176 3 12.8 5.4625 12.8 8.49938C12.8 11.5363 15.2176 13.9988 18.2 13.9988C21.1824 13.9988 23.6 11.5363 23.6 8.49938C23.6 5.4625 21.1824 3 18.2 3ZM9.2 4.22209C6.54908 4.22209 4.4 6.41084 4.4 9.11043C4.4 11.81 6.54908 13.9988 9.2 13.9988C10.1953 13.9988 11.1038 13.7202 11.9034 13.1507C9.8528 10.0466 10.1434 7.07443 11.261 4.68037C10.6227 4.3724 9.92168 4.22209 9.2 4.22209ZM5.675 15.6412C3.47408 16.5664 2 18.8333 2 21.3313V23.7755C2 24.45 2.53724 24.9975 3.2 24.9975L8.18336 25C7.90256 24.0712 7.98512 22.5656 8.0036 21.3472C8.0426 18.76 9.0932 16.9146 9.50468 16.4282C8.74844 16.4221 7.84088 16.2352 7.175 15.9468C7.0142 15.8771 6.92084 15.8221 6.61256 15.6791C6.31028 15.5386 5.98196 15.5117 5.675 15.6412ZM14.075 15.6412C11.8741 16.5664 10.4 18.8333 10.4 21.3313V23.7755C10.4 24.45 10.9372 24.9975 11.6 24.9975H24.8C25.4628 24.9975 26 24.45 26 23.7755V21.3313C26 18.892 24.5178 16.68 22.325 15.717C22.0164 15.5814 21.6567 15.5777 21.35 15.717C20.2882 16.2022 19.2538 16.4429 18.2 16.4429C17.1498 16.4429 16.1118 16.1887 15.0126 15.6791C14.7103 15.5386 14.382 15.5117 14.075 15.6412Z" fill="#A4A9BD"/>
</svg>
