<svg width="50" height="50" viewBox="0 0 50 50" fill="none" xmlns="http://www.w3.org/2000/svg">
<rect width="50" height="50" rx="25" fill="#624AE0"/>
<path fill-rule="evenodd" clip-rule="evenodd" d="M25 17.5357C25.6509 17.5357 26.1786 18.0634 26.1786 18.7143V23.8214H31.2857C31.9366 23.8214 32.4643 24.3491 32.4643 25C32.4643 25.6509 31.9366 26.1786 31.2857 26.1786H26.1786V31.2857C26.1786 31.9366 25.6509 32.4643 25 32.4643C24.3491 32.4643 23.8214 31.9366 23.8214 31.2857V26.1786H18.7143C18.0634 26.1786 17.5357 25.6509 17.5357 25C17.5357 24.3491 18.0634 23.8214 18.7143 23.8214H23.8214V18.7143C23.8214 18.0634 24.3491 17.5357 25 17.5357Z" fill="white"/>
</svg>
