<svg width="16" height="16" viewBox="0 0 16 16" fill="none" xmlns="http://www.w3.org/2000/svg">
<path fill-rule="evenodd" clip-rule="evenodd" d="M7.99993 0.535706C8.65084 0.535706 9.1785 1.06337 9.1785 1.71428V6.82142H14.2856C14.9366 6.82142 15.4642 7.34908 15.4642 7.99999C15.4642 8.6509 14.9366 9.17856 14.2856 9.17856H9.1785V14.2857C9.1785 14.9366 8.65084 15.4643 7.99993 15.4643C7.34902 15.4643 6.82136 14.9366 6.82136 14.2857V9.17856H1.71422C1.06331 9.17856 0.535645 8.6509 0.535645 7.99999C0.535645 7.34908 1.06331 6.82142 1.71422 6.82142H6.82136V1.71428C6.82136 1.06337 7.34902 0.535706 7.99993 0.535706Z" fill="white"/>
</svg>
