<svg width="34" height="42" viewBox="0 0 34 42" fill="none" xmlns="http://www.w3.org/2000/svg">
    <path d="M6.93059 10.4531C6.93059 5.00665 11.4929 0.6875 17 0.6875C22.5072 0.6875 27.0695 5.00665 27.0695 10.4531C27.0695 15.8996 22.5072 20.2188 17 20.2188C11.4929 20.2188 6.93059 15.8996 6.93059 10.4531ZM23.0629 24.1008L23.4958 24.1722C29.092 25.0948 33.1458 30.0605 33.1458 35.8156C33.1458 38.8032 30.7886 41.3125 27.7747 41.3125H6.22526C3.21139 41.3125 0.854156 38.8032 0.854156 35.8156C0.854156 30.0605 4.90798 25.0948 10.5042 24.1722L10.9371 24.1008C14.9535 23.4386 19.0464 23.4386 23.0629 24.1008Z" fill="#624AE0"/>
</svg>